<mxfile host="app.diagrams.net" agent="Mozilla/5.0 (Macintosh; Intel Mac OS X 10_15_7) AppleWebKit/537.36 (KHTML, like Gecko) Chrome/134.0.0.0 Safari/537.36" version="26.1.3">
  <diagram name="Page-1" id="ehrURdoTpdqYw4ACMp6Q">
    <mxGraphModel dx="3047" dy="1442" grid="1" gridSize="10" guides="1" tooltips="1" connect="1" arrows="1" fold="1" page="1" pageScale="1" pageWidth="850" pageHeight="1100" math="0" shadow="0">
      <root>
        <mxCell id="0" />
        <mxCell id="1" parent="0" />
        <mxCell id="WpBLk9SdmlVmNWCZA8uA-1" value="&lt;font style=&quot;font-size: 18px;&quot;&gt;Brent&lt;/font&gt;" style="ellipse;whiteSpace=wrap;html=1;aspect=fixed;" parent="1" vertex="1">
          <mxGeometry x="50" y="250" width="60" height="60" as="geometry" />
        </mxCell>
        <mxCell id="WpBLk9SdmlVmNWCZA8uA-7" value="&lt;font style=&quot;font-size: 24px;&quot;&gt;NET&lt;/font&gt;" style="rounded=0;whiteSpace=wrap;html=1;" parent="1" vertex="1">
          <mxGeometry x="15" y="170" width="855" height="30" as="geometry" />
        </mxCell>
        <mxCell id="WpBLk9SdmlVmNWCZA8uA-8" value="&lt;font style=&quot;font-size: 36px;&quot;&gt;Rotation 1&lt;/font&gt;" style="text;html=1;align=center;verticalAlign=middle;resizable=0;points=[];autosize=1;strokeColor=none;fillColor=none;" parent="1" vertex="1">
          <mxGeometry x="350" y="100" width="190" height="60" as="geometry" />
        </mxCell>
        <mxCell id="WpBLk9SdmlVmNWCZA8uA-65" value="" style="endArrow=none;html=1;rounded=0;entryX=0.5;entryY=1;entryDx=0;entryDy=0;" parent="1" target="WpBLk9SdmlVmNWCZA8uA-7" edge="1">
          <mxGeometry width="50" height="50" relative="1" as="geometry">
            <mxPoint x="440" y="520" as="sourcePoint" />
            <mxPoint x="450" y="230" as="targetPoint" />
          </mxGeometry>
        </mxCell>
        <mxCell id="WpBLk9SdmlVmNWCZA8uA-67" value="&lt;font style=&quot;font-size: 18px;&quot;&gt;Eseta&lt;/font&gt;" style="ellipse;whiteSpace=wrap;html=1;aspect=fixed;" parent="1" vertex="1">
          <mxGeometry x="180" y="250" width="60" height="60" as="geometry" />
        </mxCell>
        <mxCell id="WpBLk9SdmlVmNWCZA8uA-68" value="&lt;font style=&quot;font-size: 18px;&quot;&gt;Jason&lt;/font&gt;" style="ellipse;whiteSpace=wrap;html=1;aspect=fixed;" parent="1" vertex="1">
          <mxGeometry x="310" y="250" width="60" height="60" as="geometry" />
        </mxCell>
        <mxCell id="WpBLk9SdmlVmNWCZA8uA-69" value="&lt;font style=&quot;font-size: 18px;&quot;&gt;Vincent&lt;/font&gt;" style="ellipse;whiteSpace=wrap;html=1;aspect=fixed;" parent="1" vertex="1">
          <mxGeometry x="50" y="380" width="60" height="60" as="geometry" />
        </mxCell>
        <mxCell id="WpBLk9SdmlVmNWCZA8uA-70" value="&lt;font style=&quot;font-size: 18px;&quot;&gt;Kiara&lt;/font&gt;" style="ellipse;whiteSpace=wrap;html=1;aspect=fixed;" parent="1" vertex="1">
          <mxGeometry x="180" y="380" width="60" height="60" as="geometry" />
        </mxCell>
        <mxCell id="WpBLk9SdmlVmNWCZA8uA-71" value="&lt;span style=&quot;font-size: 18px;&quot;&gt;Akash&lt;/span&gt;" style="ellipse;whiteSpace=wrap;html=1;aspect=fixed;" parent="1" vertex="1">
          <mxGeometry x="310" y="380" width="60" height="60" as="geometry" />
        </mxCell>
        <mxCell id="WpBLk9SdmlVmNWCZA8uA-72" value="Serve-receive" style="text;html=1;align=center;verticalAlign=middle;resizable=0;points=[];autosize=1;strokeColor=none;fillColor=none;" parent="1" vertex="1">
          <mxGeometry x="620" y="170" width="100" height="30" as="geometry" />
        </mxCell>
        <mxCell id="WpBLk9SdmlVmNWCZA8uA-74" value="&lt;font style=&quot;font-size: 18px;&quot;&gt;Brent&lt;/font&gt;" style="ellipse;whiteSpace=wrap;html=1;aspect=fixed;" parent="1" vertex="1">
          <mxGeometry x="470" y="390" width="60" height="60" as="geometry" />
        </mxCell>
        <mxCell id="WpBLk9SdmlVmNWCZA8uA-75" value="&lt;font style=&quot;font-size: 18px;&quot;&gt;Eseta&lt;/font&gt;" style="ellipse;whiteSpace=wrap;html=1;aspect=fixed;" parent="1" vertex="1">
          <mxGeometry x="790" y="220" width="60" height="60" as="geometry" />
        </mxCell>
        <mxCell id="WpBLk9SdmlVmNWCZA8uA-76" value="&lt;font style=&quot;font-size: 18px;&quot;&gt;Jason&lt;/font&gt;" style="ellipse;whiteSpace=wrap;html=1;aspect=fixed;" parent="1" vertex="1">
          <mxGeometry x="820" y="280" width="60" height="60" as="geometry" />
        </mxCell>
        <mxCell id="WpBLk9SdmlVmNWCZA8uA-77" value="&lt;font style=&quot;font-size: 18px;&quot;&gt;Vincent&lt;/font&gt;" style="ellipse;whiteSpace=wrap;html=1;aspect=fixed;" parent="1" vertex="1">
          <mxGeometry x="600" y="390" width="60" height="60" as="geometry" />
        </mxCell>
        <mxCell id="WpBLk9SdmlVmNWCZA8uA-78" value="&lt;font style=&quot;font-size: 18px;&quot;&gt;Kiara&lt;/font&gt;" style="ellipse;whiteSpace=wrap;html=1;aspect=fixed;" parent="1" vertex="1">
          <mxGeometry x="730" y="390" width="60" height="60" as="geometry" />
        </mxCell>
        <mxCell id="WpBLk9SdmlVmNWCZA8uA-79" value="&lt;span style=&quot;font-size: 18px;&quot;&gt;Akash&lt;/span&gt;" style="ellipse;whiteSpace=wrap;html=1;aspect=fixed;" parent="1" vertex="1">
          <mxGeometry x="770" y="320" width="60" height="60" as="geometry" />
        </mxCell>
        <mxCell id="WpBLk9SdmlVmNWCZA8uA-80" value="&lt;font style=&quot;font-size: 18px;&quot;&gt;Brent&lt;/font&gt;" style="ellipse;whiteSpace=wrap;html=1;aspect=fixed;" parent="1" vertex="1">
          <mxGeometry x="1085" y="250" width="60" height="60" as="geometry" />
        </mxCell>
        <mxCell id="WpBLk9SdmlVmNWCZA8uA-81" value="&lt;font style=&quot;font-size: 24px;&quot;&gt;NET&lt;/font&gt;" style="rounded=0;whiteSpace=wrap;html=1;" parent="1" vertex="1">
          <mxGeometry x="920" y="170" width="855" height="30" as="geometry" />
        </mxCell>
        <mxCell id="WpBLk9SdmlVmNWCZA8uA-82" value="&lt;font style=&quot;font-size: 36px;&quot;&gt;Rotation 2&lt;/font&gt;" style="text;html=1;align=center;verticalAlign=middle;resizable=0;points=[];autosize=1;strokeColor=none;fillColor=none;" parent="1" vertex="1">
          <mxGeometry x="1255" y="100" width="190" height="60" as="geometry" />
        </mxCell>
        <mxCell id="WpBLk9SdmlVmNWCZA8uA-83" value="" style="endArrow=none;html=1;rounded=0;entryX=0.5;entryY=1;entryDx=0;entryDy=0;" parent="1" target="WpBLk9SdmlVmNWCZA8uA-81" edge="1">
          <mxGeometry width="50" height="50" relative="1" as="geometry">
            <mxPoint x="1345" y="520" as="sourcePoint" />
            <mxPoint x="1355" y="230" as="targetPoint" />
          </mxGeometry>
        </mxCell>
        <mxCell id="WpBLk9SdmlVmNWCZA8uA-84" value="&lt;font style=&quot;font-size: 18px;&quot;&gt;Eseta&lt;/font&gt;" style="ellipse;whiteSpace=wrap;html=1;aspect=fixed;" parent="1" vertex="1">
          <mxGeometry x="1215" y="250" width="60" height="60" as="geometry" />
        </mxCell>
        <mxCell id="WpBLk9SdmlVmNWCZA8uA-85" value="&lt;font style=&quot;font-size: 18px;&quot;&gt;Jason&lt;/font&gt;" style="ellipse;whiteSpace=wrap;html=1;aspect=fixed;" parent="1" vertex="1">
          <mxGeometry x="1215" y="380" width="60" height="60" as="geometry" />
        </mxCell>
        <mxCell id="WpBLk9SdmlVmNWCZA8uA-86" value="&lt;font style=&quot;font-size: 18px;&quot;&gt;Vincent&lt;/font&gt;" style="ellipse;whiteSpace=wrap;html=1;aspect=fixed;" parent="1" vertex="1">
          <mxGeometry x="955" y="250" width="60" height="60" as="geometry" />
        </mxCell>
        <mxCell id="WpBLk9SdmlVmNWCZA8uA-87" value="&lt;font style=&quot;font-size: 18px;&quot;&gt;Kiara&lt;/font&gt;" style="ellipse;whiteSpace=wrap;html=1;aspect=fixed;" parent="1" vertex="1">
          <mxGeometry x="955" y="380" width="60" height="60" as="geometry" />
        </mxCell>
        <mxCell id="WpBLk9SdmlVmNWCZA8uA-88" value="&lt;span style=&quot;font-size: 18px;&quot;&gt;Akash&lt;/span&gt;" style="ellipse;whiteSpace=wrap;html=1;aspect=fixed;" parent="1" vertex="1">
          <mxGeometry x="1085" y="380" width="60" height="60" as="geometry" />
        </mxCell>
        <mxCell id="WpBLk9SdmlVmNWCZA8uA-89" value="Serve-receive" style="text;html=1;align=center;verticalAlign=middle;resizable=0;points=[];autosize=1;strokeColor=none;fillColor=none;" parent="1" vertex="1">
          <mxGeometry x="1525" y="170" width="100" height="30" as="geometry" />
        </mxCell>
        <mxCell id="WpBLk9SdmlVmNWCZA8uA-97" value="&lt;font style=&quot;font-size: 24px;&quot;&gt;NET&lt;/font&gt;" style="rounded=0;whiteSpace=wrap;html=1;" parent="1" vertex="1">
          <mxGeometry x="15" y="630" width="855" height="30" as="geometry" />
        </mxCell>
        <mxCell id="WpBLk9SdmlVmNWCZA8uA-98" value="&lt;font style=&quot;font-size: 36px;&quot;&gt;Rotation 3&lt;/font&gt;" style="text;html=1;align=center;verticalAlign=middle;resizable=0;points=[];autosize=1;strokeColor=none;fillColor=none;" parent="1" vertex="1">
          <mxGeometry x="350" y="560" width="190" height="60" as="geometry" />
        </mxCell>
        <mxCell id="WpBLk9SdmlVmNWCZA8uA-99" value="" style="endArrow=none;html=1;rounded=0;entryX=0.5;entryY=1;entryDx=0;entryDy=0;" parent="1" target="WpBLk9SdmlVmNWCZA8uA-97" edge="1">
          <mxGeometry width="50" height="50" relative="1" as="geometry">
            <mxPoint x="440" y="980" as="sourcePoint" />
            <mxPoint x="450" y="690" as="targetPoint" />
          </mxGeometry>
        </mxCell>
        <mxCell id="WpBLk9SdmlVmNWCZA8uA-105" value="Serve-receive" style="text;html=1;align=center;verticalAlign=middle;resizable=0;points=[];autosize=1;strokeColor=none;fillColor=none;" parent="1" vertex="1">
          <mxGeometry x="620" y="630" width="100" height="30" as="geometry" />
        </mxCell>
        <mxCell id="WpBLk9SdmlVmNWCZA8uA-113" value="&lt;font style=&quot;font-size: 24px;&quot;&gt;NET&lt;/font&gt;" style="rounded=0;whiteSpace=wrap;html=1;" parent="1" vertex="1">
          <mxGeometry x="920" y="630" width="855" height="30" as="geometry" />
        </mxCell>
        <mxCell id="WpBLk9SdmlVmNWCZA8uA-114" value="&lt;font style=&quot;font-size: 36px;&quot;&gt;Rotation 4&lt;/font&gt;" style="text;html=1;align=center;verticalAlign=middle;resizable=0;points=[];autosize=1;strokeColor=none;fillColor=none;" parent="1" vertex="1">
          <mxGeometry x="1255" y="560" width="190" height="60" as="geometry" />
        </mxCell>
        <mxCell id="WpBLk9SdmlVmNWCZA8uA-115" value="" style="endArrow=none;html=1;rounded=0;entryX=0.5;entryY=1;entryDx=0;entryDy=0;" parent="1" target="WpBLk9SdmlVmNWCZA8uA-113" edge="1">
          <mxGeometry width="50" height="50" relative="1" as="geometry">
            <mxPoint x="1345" y="980" as="sourcePoint" />
            <mxPoint x="1355" y="690" as="targetPoint" />
          </mxGeometry>
        </mxCell>
        <mxCell id="WpBLk9SdmlVmNWCZA8uA-121" value="Serve-receive" style="text;html=1;align=center;verticalAlign=middle;resizable=0;points=[];autosize=1;strokeColor=none;fillColor=none;" parent="1" vertex="1">
          <mxGeometry x="1525" y="630" width="100" height="30" as="geometry" />
        </mxCell>
        <mxCell id="WpBLk9SdmlVmNWCZA8uA-129" value="&lt;font style=&quot;font-size: 24px;&quot;&gt;NET&lt;/font&gt;" style="rounded=0;whiteSpace=wrap;html=1;" parent="1" vertex="1">
          <mxGeometry x="15" y="1090" width="855" height="30" as="geometry" />
        </mxCell>
        <mxCell id="WpBLk9SdmlVmNWCZA8uA-130" value="&lt;font style=&quot;font-size: 36px;&quot;&gt;Rotation 5&lt;/font&gt;" style="text;html=1;align=center;verticalAlign=middle;resizable=0;points=[];autosize=1;strokeColor=none;fillColor=none;" parent="1" vertex="1">
          <mxGeometry x="350" y="1020" width="190" height="60" as="geometry" />
        </mxCell>
        <mxCell id="WpBLk9SdmlVmNWCZA8uA-131" value="" style="endArrow=none;html=1;rounded=0;entryX=0.5;entryY=1;entryDx=0;entryDy=0;" parent="1" target="WpBLk9SdmlVmNWCZA8uA-129" edge="1">
          <mxGeometry width="50" height="50" relative="1" as="geometry">
            <mxPoint x="440" y="1440" as="sourcePoint" />
            <mxPoint x="450" y="1150" as="targetPoint" />
          </mxGeometry>
        </mxCell>
        <mxCell id="WpBLk9SdmlVmNWCZA8uA-137" value="Serve-receive" style="text;html=1;align=center;verticalAlign=middle;resizable=0;points=[];autosize=1;strokeColor=none;fillColor=none;" parent="1" vertex="1">
          <mxGeometry x="620" y="1090" width="100" height="30" as="geometry" />
        </mxCell>
        <mxCell id="WpBLk9SdmlVmNWCZA8uA-145" value="&lt;font style=&quot;font-size: 24px;&quot;&gt;NET&lt;/font&gt;" style="rounded=0;whiteSpace=wrap;html=1;" parent="1" vertex="1">
          <mxGeometry x="920" y="1090" width="855" height="30" as="geometry" />
        </mxCell>
        <mxCell id="WpBLk9SdmlVmNWCZA8uA-146" value="&lt;font style=&quot;font-size: 36px;&quot;&gt;Rotation 6&lt;/font&gt;" style="text;html=1;align=center;verticalAlign=middle;resizable=0;points=[];autosize=1;strokeColor=none;fillColor=none;" parent="1" vertex="1">
          <mxGeometry x="1255" y="1020" width="190" height="60" as="geometry" />
        </mxCell>
        <mxCell id="WpBLk9SdmlVmNWCZA8uA-147" value="" style="endArrow=none;html=1;rounded=0;entryX=0.5;entryY=1;entryDx=0;entryDy=0;" parent="1" target="WpBLk9SdmlVmNWCZA8uA-145" edge="1">
          <mxGeometry width="50" height="50" relative="1" as="geometry">
            <mxPoint x="1345" y="1440" as="sourcePoint" />
            <mxPoint x="1355" y="1150" as="targetPoint" />
          </mxGeometry>
        </mxCell>
        <mxCell id="WpBLk9SdmlVmNWCZA8uA-153" value="Serve-receive" style="text;html=1;align=center;verticalAlign=middle;resizable=0;points=[];autosize=1;strokeColor=none;fillColor=none;" parent="1" vertex="1">
          <mxGeometry x="1525" y="1090" width="100" height="30" as="geometry" />
        </mxCell>
        <mxCell id="WpBLk9SdmlVmNWCZA8uA-160" value="&lt;font style=&quot;font-size: 18px;&quot;&gt;Brent&lt;/font&gt;" style="ellipse;whiteSpace=wrap;html=1;aspect=fixed;" parent="1" vertex="1">
          <mxGeometry x="1640" y="210" width="60" height="60" as="geometry" />
        </mxCell>
        <mxCell id="WpBLk9SdmlVmNWCZA8uA-161" value="&lt;font style=&quot;font-size: 18px;&quot;&gt;Eseta&lt;/font&gt;" style="ellipse;whiteSpace=wrap;html=1;aspect=fixed;" parent="1" vertex="1">
          <mxGeometry x="1675" y="270" width="60" height="60" as="geometry" />
        </mxCell>
        <mxCell id="WpBLk9SdmlVmNWCZA8uA-162" value="&lt;font style=&quot;font-size: 18px;&quot;&gt;Jason&lt;/font&gt;" style="ellipse;whiteSpace=wrap;html=1;aspect=fixed;" parent="1" vertex="1">
          <mxGeometry x="1670" y="400" width="60" height="60" as="geometry" />
        </mxCell>
        <mxCell id="WpBLk9SdmlVmNWCZA8uA-163" value="&lt;font style=&quot;font-size: 18px;&quot;&gt;Vincent&lt;/font&gt;" style="ellipse;whiteSpace=wrap;html=1;aspect=fixed;" parent="1" vertex="1">
          <mxGeometry x="1420" y="400" width="60" height="60" as="geometry" />
        </mxCell>
        <mxCell id="WpBLk9SdmlVmNWCZA8uA-164" value="&lt;font style=&quot;font-size: 18px;&quot;&gt;Kiara&lt;/font&gt;" style="ellipse;whiteSpace=wrap;html=1;aspect=fixed;" parent="1" vertex="1">
          <mxGeometry x="1545" y="400" width="60" height="60" as="geometry" />
        </mxCell>
        <mxCell id="WpBLk9SdmlVmNWCZA8uA-165" value="&lt;span style=&quot;font-size: 18px;&quot;&gt;Akash&lt;/span&gt;" style="ellipse;whiteSpace=wrap;html=1;aspect=fixed;" parent="1" vertex="1">
          <mxGeometry x="1615" y="310" width="60" height="60" as="geometry" />
        </mxCell>
        <mxCell id="WpBLk9SdmlVmNWCZA8uA-166" value="&lt;font style=&quot;font-size: 18px;&quot;&gt;Brent&lt;/font&gt;" style="ellipse;whiteSpace=wrap;html=1;aspect=fixed;" parent="1" vertex="1">
          <mxGeometry x="310" y="740" width="60" height="60" as="geometry" />
        </mxCell>
        <mxCell id="WpBLk9SdmlVmNWCZA8uA-167" value="&lt;font style=&quot;font-size: 18px;&quot;&gt;Eseta&lt;/font&gt;" style="ellipse;whiteSpace=wrap;html=1;aspect=fixed;" parent="1" vertex="1">
          <mxGeometry x="310" y="870" width="60" height="60" as="geometry" />
        </mxCell>
        <mxCell id="WpBLk9SdmlVmNWCZA8uA-168" value="&lt;font style=&quot;font-size: 18px;&quot;&gt;Jason&lt;/font&gt;" style="ellipse;whiteSpace=wrap;html=1;aspect=fixed;" parent="1" vertex="1">
          <mxGeometry x="180" y="870" width="60" height="60" as="geometry" />
        </mxCell>
        <mxCell id="WpBLk9SdmlVmNWCZA8uA-169" value="&lt;font style=&quot;font-size: 18px;&quot;&gt;Vincent&lt;/font&gt;" style="ellipse;whiteSpace=wrap;html=1;aspect=fixed;" parent="1" vertex="1">
          <mxGeometry x="180" y="740" width="60" height="60" as="geometry" />
        </mxCell>
        <mxCell id="WpBLk9SdmlVmNWCZA8uA-170" value="&lt;font style=&quot;font-size: 18px;&quot;&gt;Kiara&lt;/font&gt;" style="ellipse;whiteSpace=wrap;html=1;aspect=fixed;" parent="1" vertex="1">
          <mxGeometry x="50" y="740" width="60" height="60" as="geometry" />
        </mxCell>
        <mxCell id="WpBLk9SdmlVmNWCZA8uA-171" value="&lt;span style=&quot;font-size: 18px;&quot;&gt;Akash&lt;/span&gt;" style="ellipse;whiteSpace=wrap;html=1;aspect=fixed;" parent="1" vertex="1">
          <mxGeometry x="50" y="870" width="60" height="60" as="geometry" />
        </mxCell>
        <mxCell id="WpBLk9SdmlVmNWCZA8uA-178" value="&lt;font style=&quot;font-size: 18px;&quot;&gt;Brent&lt;/font&gt;" style="ellipse;whiteSpace=wrap;html=1;aspect=fixed;" parent="1" vertex="1">
          <mxGeometry x="800" y="680" width="60" height="60" as="geometry" />
        </mxCell>
        <mxCell id="WpBLk9SdmlVmNWCZA8uA-179" value="&lt;font style=&quot;font-size: 18px;&quot;&gt;Eseta&lt;/font&gt;" style="ellipse;whiteSpace=wrap;html=1;aspect=fixed;" parent="1" vertex="1">
          <mxGeometry x="770" y="870" width="60" height="60" as="geometry" />
        </mxCell>
        <mxCell id="WpBLk9SdmlVmNWCZA8uA-180" value="&lt;font style=&quot;font-size: 18px;&quot;&gt;Jason&lt;/font&gt;" style="ellipse;whiteSpace=wrap;html=1;aspect=fixed;" parent="1" vertex="1">
          <mxGeometry x="640" y="870" width="60" height="60" as="geometry" />
        </mxCell>
        <mxCell id="WpBLk9SdmlVmNWCZA8uA-181" value="&lt;font style=&quot;font-size: 18px;&quot;&gt;Vincent&lt;/font&gt;" style="ellipse;whiteSpace=wrap;html=1;aspect=fixed;" parent="1" vertex="1">
          <mxGeometry x="490" y="870" width="60" height="60" as="geometry" />
        </mxCell>
        <mxCell id="WpBLk9SdmlVmNWCZA8uA-182" value="&lt;font style=&quot;font-size: 18px;&quot;&gt;Kiara&lt;/font&gt;" style="ellipse;whiteSpace=wrap;html=1;aspect=fixed;" parent="1" vertex="1">
          <mxGeometry x="460" y="670" width="60" height="60" as="geometry" />
        </mxCell>
        <mxCell id="WpBLk9SdmlVmNWCZA8uA-183" value="&lt;span style=&quot;font-size: 18px;&quot;&gt;Akash&lt;/span&gt;" style="ellipse;whiteSpace=wrap;html=1;aspect=fixed;" parent="1" vertex="1">
          <mxGeometry x="500" y="720" width="60" height="60" as="geometry" />
        </mxCell>
        <mxCell id="WpBLk9SdmlVmNWCZA8uA-184" value="&lt;font style=&quot;font-size: 18px;&quot;&gt;Brent&lt;/font&gt;" style="ellipse;whiteSpace=wrap;html=1;aspect=fixed;" parent="1" vertex="1">
          <mxGeometry x="1230" y="870" width="60" height="60" as="geometry" />
        </mxCell>
        <mxCell id="WpBLk9SdmlVmNWCZA8uA-185" value="&lt;font style=&quot;font-size: 18px;&quot;&gt;Eseta&lt;/font&gt;" style="ellipse;whiteSpace=wrap;html=1;aspect=fixed;" parent="1" vertex="1">
          <mxGeometry x="1100" y="870" width="60" height="60" as="geometry" />
        </mxCell>
        <mxCell id="WpBLk9SdmlVmNWCZA8uA-186" value="&lt;font style=&quot;font-size: 18px;&quot;&gt;Jason&lt;/font&gt;" style="ellipse;whiteSpace=wrap;html=1;aspect=fixed;" parent="1" vertex="1">
          <mxGeometry x="970" y="870" width="60" height="60" as="geometry" />
        </mxCell>
        <mxCell id="WpBLk9SdmlVmNWCZA8uA-187" value="&lt;font style=&quot;font-size: 18px;&quot;&gt;Vincent&lt;/font&gt;" style="ellipse;whiteSpace=wrap;html=1;aspect=fixed;" parent="1" vertex="1">
          <mxGeometry x="1230" y="740" width="60" height="60" as="geometry" />
        </mxCell>
        <mxCell id="WpBLk9SdmlVmNWCZA8uA-188" value="&lt;font style=&quot;font-size: 18px;&quot;&gt;Kiara&lt;/font&gt;" style="ellipse;whiteSpace=wrap;html=1;aspect=fixed;" parent="1" vertex="1">
          <mxGeometry x="1100" y="740" width="60" height="60" as="geometry" />
        </mxCell>
        <mxCell id="WpBLk9SdmlVmNWCZA8uA-189" value="&lt;span style=&quot;font-size: 18px;&quot;&gt;Akash&lt;/span&gt;" style="ellipse;whiteSpace=wrap;html=1;aspect=fixed;" parent="1" vertex="1">
          <mxGeometry x="970" y="740" width="60" height="60" as="geometry" />
        </mxCell>
        <mxCell id="WpBLk9SdmlVmNWCZA8uA-191" value="&lt;font style=&quot;font-size: 18px;&quot;&gt;Brent&lt;/font&gt;" style="ellipse;whiteSpace=wrap;html=1;aspect=fixed;" parent="1" vertex="1">
          <mxGeometry x="1670" y="740" width="60" height="60" as="geometry" />
        </mxCell>
        <mxCell id="WpBLk9SdmlVmNWCZA8uA-192" value="&lt;font style=&quot;font-size: 18px;&quot;&gt;Eseta&lt;/font&gt;" style="ellipse;whiteSpace=wrap;html=1;aspect=fixed;" parent="1" vertex="1">
          <mxGeometry x="1630" y="870" width="60" height="60" as="geometry" />
        </mxCell>
        <mxCell id="WpBLk9SdmlVmNWCZA8uA-193" value="&lt;font style=&quot;font-size: 18px;&quot;&gt;Jason&lt;/font&gt;" style="ellipse;whiteSpace=wrap;html=1;aspect=fixed;" parent="1" vertex="1">
          <mxGeometry x="1520" y="870" width="60" height="60" as="geometry" />
        </mxCell>
        <mxCell id="WpBLk9SdmlVmNWCZA8uA-194" value="&lt;font style=&quot;font-size: 18px;&quot;&gt;Vincent&lt;/font&gt;" style="ellipse;whiteSpace=wrap;html=1;aspect=fixed;" parent="1" vertex="1">
          <mxGeometry x="1700" y="695" width="60" height="60" as="geometry" />
        </mxCell>
        <mxCell id="WpBLk9SdmlVmNWCZA8uA-195" value="&lt;font style=&quot;font-size: 18px;&quot;&gt;Kiara&lt;/font&gt;" style="ellipse;whiteSpace=wrap;html=1;aspect=fixed;" parent="1" vertex="1">
          <mxGeometry x="1410" y="870" width="60" height="60" as="geometry" />
        </mxCell>
        <mxCell id="WpBLk9SdmlVmNWCZA8uA-196" value="&lt;span style=&quot;font-size: 18px;&quot;&gt;Akash&lt;/span&gt;" style="ellipse;whiteSpace=wrap;html=1;aspect=fixed;" parent="1" vertex="1">
          <mxGeometry x="1350" y="670" width="60" height="60" as="geometry" />
        </mxCell>
        <mxCell id="WpBLk9SdmlVmNWCZA8uA-197" value="&lt;font style=&quot;font-size: 18px;&quot;&gt;Brent&lt;/font&gt;" style="ellipse;whiteSpace=wrap;html=1;aspect=fixed;" parent="1" vertex="1">
          <mxGeometry x="180" y="1310" width="60" height="60" as="geometry" />
        </mxCell>
        <mxCell id="WpBLk9SdmlVmNWCZA8uA-198" value="&lt;font style=&quot;font-size: 18px;&quot;&gt;Eseta&lt;/font&gt;" style="ellipse;whiteSpace=wrap;html=1;aspect=fixed;" parent="1" vertex="1">
          <mxGeometry x="50" y="1310" width="60" height="60" as="geometry" />
        </mxCell>
        <mxCell id="WpBLk9SdmlVmNWCZA8uA-199" value="&lt;font style=&quot;font-size: 18px;&quot;&gt;Jason&lt;/font&gt;" style="ellipse;whiteSpace=wrap;html=1;aspect=fixed;" parent="1" vertex="1">
          <mxGeometry x="50" y="1180" width="60" height="60" as="geometry" />
        </mxCell>
        <mxCell id="WpBLk9SdmlVmNWCZA8uA-200" value="&lt;font style=&quot;font-size: 18px;&quot;&gt;Vincent&lt;/font&gt;" style="ellipse;whiteSpace=wrap;html=1;aspect=fixed;" parent="1" vertex="1">
          <mxGeometry x="310" y="1310" width="60" height="60" as="geometry" />
        </mxCell>
        <mxCell id="WpBLk9SdmlVmNWCZA8uA-201" value="&lt;font style=&quot;font-size: 18px;&quot;&gt;Kiara&lt;/font&gt;" style="ellipse;whiteSpace=wrap;html=1;aspect=fixed;" parent="1" vertex="1">
          <mxGeometry x="310" y="1180" width="60" height="60" as="geometry" />
        </mxCell>
        <mxCell id="WpBLk9SdmlVmNWCZA8uA-202" value="&lt;span style=&quot;font-size: 18px;&quot;&gt;Akash&lt;/span&gt;" style="ellipse;whiteSpace=wrap;html=1;aspect=fixed;" parent="1" vertex="1">
          <mxGeometry x="180" y="1180" width="60" height="60" as="geometry" />
        </mxCell>
        <mxCell id="WpBLk9SdmlVmNWCZA8uA-203" value="&lt;font style=&quot;font-size: 18px;&quot;&gt;Brent&lt;/font&gt;" style="ellipse;whiteSpace=wrap;html=1;aspect=fixed;" parent="1" vertex="1">
          <mxGeometry x="700" y="1165" width="60" height="60" as="geometry" />
        </mxCell>
        <mxCell id="WpBLk9SdmlVmNWCZA8uA-204" value="&lt;font style=&quot;font-size: 18px;&quot;&gt;Eseta&lt;/font&gt;" style="ellipse;whiteSpace=wrap;html=1;aspect=fixed;" parent="1" vertex="1">
          <mxGeometry x="500" y="1310" width="60" height="60" as="geometry" />
        </mxCell>
        <mxCell id="WpBLk9SdmlVmNWCZA8uA-205" value="&lt;font style=&quot;font-size: 18px;&quot;&gt;Jason&lt;/font&gt;" style="ellipse;whiteSpace=wrap;html=1;aspect=fixed;" parent="1" vertex="1">
          <mxGeometry x="460" y="1150" width="60" height="60" as="geometry" />
        </mxCell>
        <mxCell id="WpBLk9SdmlVmNWCZA8uA-206" value="&lt;font style=&quot;font-size: 18px;&quot;&gt;Vincent&lt;/font&gt;" style="ellipse;whiteSpace=wrap;html=1;aspect=fixed;" parent="1" vertex="1">
          <mxGeometry x="630" y="1310" width="60" height="60" as="geometry" />
        </mxCell>
        <mxCell id="WpBLk9SdmlVmNWCZA8uA-207" value="&lt;font style=&quot;font-size: 18px;&quot;&gt;Kiara&lt;/font&gt;" style="ellipse;whiteSpace=wrap;html=1;aspect=fixed;" parent="1" vertex="1">
          <mxGeometry x="770" y="1310" width="67.5" height="67.5" as="geometry" />
        </mxCell>
        <mxCell id="WpBLk9SdmlVmNWCZA8uA-208" value="&lt;span style=&quot;font-size: 18px;&quot;&gt;Akash&lt;/span&gt;" style="ellipse;whiteSpace=wrap;html=1;aspect=fixed;" parent="1" vertex="1">
          <mxGeometry x="780" y="1130" width="60" height="60" as="geometry" />
        </mxCell>
        <mxCell id="WpBLk9SdmlVmNWCZA8uA-215" value="&lt;font style=&quot;font-size: 18px;&quot;&gt;Brent&lt;/font&gt;" style="ellipse;whiteSpace=wrap;html=1;aspect=fixed;" parent="1" vertex="1">
          <mxGeometry x="955" y="1295" width="60" height="60" as="geometry" />
        </mxCell>
        <mxCell id="WpBLk9SdmlVmNWCZA8uA-216" value="&lt;font style=&quot;font-size: 18px;&quot;&gt;Eseta&lt;/font&gt;" style="ellipse;whiteSpace=wrap;html=1;aspect=fixed;" parent="1" vertex="1">
          <mxGeometry x="955" y="1165" width="60" height="60" as="geometry" />
        </mxCell>
        <mxCell id="WpBLk9SdmlVmNWCZA8uA-217" value="&lt;font style=&quot;font-size: 18px;&quot;&gt;Jason&lt;/font&gt;" style="ellipse;whiteSpace=wrap;html=1;aspect=fixed;" parent="1" vertex="1">
          <mxGeometry x="1085" y="1165" width="60" height="60" as="geometry" />
        </mxCell>
        <mxCell id="WpBLk9SdmlVmNWCZA8uA-218" value="&lt;font style=&quot;font-size: 18px;&quot;&gt;Vincent&lt;/font&gt;" style="ellipse;whiteSpace=wrap;html=1;aspect=fixed;" parent="1" vertex="1">
          <mxGeometry x="1082.5" y="1292.5" width="65" height="65" as="geometry" />
        </mxCell>
        <mxCell id="WpBLk9SdmlVmNWCZA8uA-219" value="&lt;font style=&quot;font-size: 18px;&quot;&gt;Kiara&lt;/font&gt;" style="ellipse;whiteSpace=wrap;html=1;aspect=fixed;" parent="1" vertex="1">
          <mxGeometry x="1215" y="1295" width="60" height="60" as="geometry" />
        </mxCell>
        <mxCell id="WpBLk9SdmlVmNWCZA8uA-220" value="&lt;span style=&quot;font-size: 18px;&quot;&gt;Akash&lt;/span&gt;" style="ellipse;whiteSpace=wrap;html=1;aspect=fixed;" parent="1" vertex="1">
          <mxGeometry x="1215" y="1165" width="60" height="60" as="geometry" />
        </mxCell>
        <mxCell id="WpBLk9SdmlVmNWCZA8uA-221" value="&lt;font style=&quot;font-size: 18px;&quot;&gt;Brent&lt;/font&gt;" style="ellipse;whiteSpace=wrap;html=1;aspect=fixed;" parent="1" vertex="1">
          <mxGeometry x="1445" y="1165" width="60" height="60" as="geometry" />
        </mxCell>
        <mxCell id="WpBLk9SdmlVmNWCZA8uA-222" value="&lt;font style=&quot;font-size: 18px;&quot;&gt;Eseta&lt;/font&gt;" style="ellipse;whiteSpace=wrap;html=1;aspect=fixed;" parent="1" vertex="1">
          <mxGeometry x="1360" y="1130" width="60" height="60" as="geometry" />
        </mxCell>
        <mxCell id="WpBLk9SdmlVmNWCZA8uA-223" value="&lt;font style=&quot;font-size: 18px;&quot;&gt;Jason&lt;/font&gt;" style="ellipse;whiteSpace=wrap;html=1;aspect=fixed;" parent="1" vertex="1">
          <mxGeometry x="1410" y="1300" width="60" height="60" as="geometry" />
        </mxCell>
        <mxCell id="WpBLk9SdmlVmNWCZA8uA-224" value="&lt;font style=&quot;font-size: 18px;&quot;&gt;Vincent&lt;/font&gt;" style="ellipse;whiteSpace=wrap;html=1;aspect=fixed;" parent="1" vertex="1">
          <mxGeometry x="1530" y="1297.5" width="65" height="65" as="geometry" />
        </mxCell>
        <mxCell id="WpBLk9SdmlVmNWCZA8uA-225" value="&lt;font style=&quot;font-size: 18px;&quot;&gt;Kiara&lt;/font&gt;" style="ellipse;whiteSpace=wrap;html=1;aspect=fixed;" parent="1" vertex="1">
          <mxGeometry x="1660" y="1302.5" width="60" height="60" as="geometry" />
        </mxCell>
        <mxCell id="WpBLk9SdmlVmNWCZA8uA-226" value="&lt;span style=&quot;font-size: 18px;&quot;&gt;Akash&lt;/span&gt;" style="ellipse;whiteSpace=wrap;html=1;aspect=fixed;" parent="1" vertex="1">
          <mxGeometry x="1675" y="1120" width="60" height="60" as="geometry" />
        </mxCell>
        <mxCell id="WpBLk9SdmlVmNWCZA8uA-227" value="&lt;font style=&quot;font-size: 14px;&quot;&gt;Hitting options: 4, 5, pipe&lt;/font&gt;" style="text;html=1;align=center;verticalAlign=middle;resizable=0;points=[];autosize=1;strokeColor=none;fillColor=none;" parent="1" vertex="1">
          <mxGeometry x="570" y="1250" width="180" height="30" as="geometry" />
        </mxCell>
        <mxCell id="WpBLk9SdmlVmNWCZA8uA-228" value="&lt;font style=&quot;font-size: 14px;&quot;&gt;Hitting options: 4, 2, pipe, option&lt;/font&gt;" style="text;html=1;align=center;verticalAlign=middle;resizable=0;points=[];autosize=1;strokeColor=none;fillColor=none;" parent="1" vertex="1">
          <mxGeometry x="1500" y="1220" width="220" height="30" as="geometry" />
        </mxCell>
        <mxCell id="WpBLk9SdmlVmNWCZA8uA-229" value="&lt;font style=&quot;font-size: 14px;&quot;&gt;Hitting options: 4, 2, 5, pipe&lt;/font&gt;" style="text;html=1;align=center;verticalAlign=middle;resizable=0;points=[];autosize=1;strokeColor=none;fillColor=none;" parent="1" vertex="1">
          <mxGeometry x="525" y="280" width="190" height="30" as="geometry" />
        </mxCell>
        <mxCell id="WpBLk9SdmlVmNWCZA8uA-230" value="&lt;font style=&quot;font-size: 14px;&quot;&gt;Hitting options: 4, 2, 5&lt;/font&gt;" style="text;html=1;align=center;verticalAlign=middle;resizable=0;points=[];autosize=1;strokeColor=none;fillColor=none;" parent="1" vertex="1">
          <mxGeometry x="1420" y="270" width="160" height="30" as="geometry" />
        </mxCell>
        <mxCell id="WpBLk9SdmlVmNWCZA8uA-231" value="&lt;font style=&quot;font-size: 14px;&quot;&gt;Hitting options: 4, 5&lt;/font&gt;" style="text;html=1;align=center;verticalAlign=middle;resizable=0;points=[];autosize=1;strokeColor=none;fillColor=none;" parent="1" vertex="1">
          <mxGeometry x="1510" y="695" width="140" height="30" as="geometry" />
        </mxCell>
        <mxCell id="oiY868hOZKksItvtAB1R-2" value="&lt;font style=&quot;font-size: 14px;&quot;&gt;Hitting options: 4, 2, 5&lt;/font&gt;" style="text;html=1;align=center;verticalAlign=middle;resizable=0;points=[];autosize=1;strokeColor=none;fillColor=none;" vertex="1" parent="1">
          <mxGeometry x="610" y="770" width="160" height="30" as="geometry" />
        </mxCell>
      </root>
    </mxGraphModel>
  </diagram>
</mxfile>
